<?xml version="1.0" encoding="UTF-8" standalone="no"?>
<!-- Created with Inkscape (http://www.inkscape.org/) -->

<svg
   version="1.1"
   id="svg1650"
   xml:space="preserve"
   width="682.66669"
   height="682.66669"
   viewBox="0 0 682.66669 682.66669"
   xmlns="http://www.w3.org/2000/svg"
   xmlns:svg="http://www.w3.org/2000/svg"><defs
     id="defs1654"><clipPath
       clipPathUnits="userSpaceOnUse"
       id="clipPath1664"><path
         d="M 0,512 H 512 V 0 H 0 Z"
         id="path1662" /></clipPath></defs><g
     id="g1656"
     transform="matrix(1.3333333,0,0,-1.3333333,0,682.66667)"><g
       id="g1658"><g
         id="g1660"
         clip-path="url(#clipPath1664)"><g
           id="g1666"
           transform="translate(256,378.875)"><path
             d="m 0,0 v -305.75 c 0,33.28 -26.97,60.25 -60.25,60.25 H -241 V 60 H -60 C -26.86,60 0,33.14 0,0 Z"
             style="fill:none;stroke:#000000;stroke-width:30;stroke-linecap:round;stroke-linejoin:round;stroke-miterlimit:10;stroke-dasharray:none;stroke-opacity:1"
             id="path1668" /></g><g
           id="g1670"
           transform="translate(497,438.875)"><path
             d="m 0,0 v -305.5 h -180.75 c -16.64,0 -31.7,-6.74 -42.61,-17.64 -10.9,-10.91 -17.64,-25.97 -17.64,-42.61 V -60 c 0,33.14 26.86,60 60,60 z"
             style="fill:none;stroke:#000000;stroke-width:30;stroke-linecap:round;stroke-linejoin:round;stroke-miterlimit:10;stroke-dasharray:none;stroke-opacity:1"
             id="path1672" /></g><g
           id="g1674"
           transform="translate(75.25,344.25)"><path
             d="M 0,0 H 120.5"
             style="fill:none;stroke:#000000;stroke-width:30;stroke-linecap:round;stroke-linejoin:round;stroke-miterlimit:10;stroke-dasharray:none;stroke-opacity:1"
             id="path1676" /></g><g
           id="g1678"
           transform="translate(75.25,284)"><path
             d="M 0,0 H 120.5"
             style="fill:none;stroke:#000000;stroke-width:30;stroke-linecap:round;stroke-linejoin:round;stroke-miterlimit:10;stroke-dasharray:none;stroke-opacity:1"
             id="path1680" /></g><g
           id="g1682"
           transform="translate(75.25,223.75)"><path
             d="M 0,0 H 120.5"
             style="fill:none;stroke:#000000;stroke-width:30;stroke-linecap:round;stroke-linejoin:round;stroke-miterlimit:10;stroke-dasharray:none;stroke-opacity:1"
             id="path1684" /></g><g
           id="g1686"
           transform="translate(316.25,344.25)"><path
             d="M 0,0 H 120.5"
             style="fill:none;stroke:#000000;stroke-width:30;stroke-linecap:round;stroke-linejoin:round;stroke-miterlimit:10;stroke-dasharray:none;stroke-opacity:1"
             id="path1688" /></g><g
           id="g1690"
           transform="translate(316.25,284)"><path
             d="M 0,0 H 120.5"
             style="fill:none;stroke:#000000;stroke-width:30;stroke-linecap:round;stroke-linejoin:round;stroke-miterlimit:10;stroke-dasharray:none;stroke-opacity:1"
             id="path1692" /></g><g
           id="g1694"
           transform="translate(316.25,223.75)"><path
             d="M 0,0 H 120.5"
             style="fill:none;stroke:#000000;stroke-width:30;stroke-linecap:round;stroke-linejoin:round;stroke-miterlimit:10;stroke-dasharray:none;stroke-opacity:1"
             id="path1696" /></g><g
           id="g1698"
           transform="translate(256,73.125)"><path
             d="M 0,0 H -241 V 60.25 H -60.25 C -26.97,60.25 0,33.28 0,0 Z"
             style="fill:none;stroke:#000000;stroke-width:30;stroke-linecap:round;stroke-linejoin:round;stroke-miterlimit:10;stroke-dasharray:none;stroke-opacity:1"
             id="path1700" /></g><g
           id="g1702"
           transform="translate(497,133.375)"><path
             d="m 0,0 v -60.25 h -241 c 0,16.64 6.74,31.7 17.64,42.61 10.91,10.9 25.97,17.64 42.61,17.64 z"
             style="fill:none;stroke:#000000;stroke-width:30;stroke-linecap:round;stroke-linejoin:round;stroke-miterlimit:10;stroke-dasharray:none;stroke-opacity:1"
             id="path1704" /></g></g></g></g></svg>
